Coordinates
version=1
nRows=5
nColumns=63
inDegrees=yes

Units are S.I. units (second, meters, Newtons, ...)
If the header above contains a line with 'inDegrees', this indicates whether rotational values are in degrees (yes) or radians (no).

endheader
time	pelvis_tilt	pelvis_list	pelvis_rotation	pelvis_tx	pelvis_ty	pelvis_tz	hip_flexion_r	hip_adduction_r	hip_rotation_r	knee_angle_r	knee_angle_r_beta	ankle_angle_r	subtalar_angle_r	mtp_angle_r	hip_flexion_l	hip_adduction_l	hip_rotation_l	knee_angle_l	knee_angle_l_beta	ankle_angle_l	subtalar_angle_l	mtp_angle_l	L5_S1_Flex_Ext	L5_S1_Lat_Bending	L5_S1_axial_rotation	L4_L5_Flex_Ext	L4_L5_Lat_Bending	L4_L5_axial_rotation	L3_L4_Flex_Ext	L3_L4_Lat_Bending	L3_L4_axial_rotation	L2_L3_Flex_Ext	L2_L3_Lat_Bending	L2_L3_axial_rotation	L1_L2_Flex_Ext	L1_L2_Lat_Bending	L1_L2_axial_rotation	L1_T12_Flex_Ext	L1_T12_Lat_Bending	L1_T12_axial_rotation	Abs_r3	Abs_r2	Abs_r1	Abs_t1	Abs_t2	neck_flexion	neck_bending	neck_rotation	arm_flex_r	arm_add_r	arm_rot_r	elbow_flex_r	pro_sup_r	wrist_flex_r	wrist_dev_r	arm_flex_l	arm_add_l	arm_rot_l	elbow_flex_l	pro_sup_l	wrist_flex_l	wrist_dev_l
      3.58333333	      1.93867540	      7.06868213	     91.22430218	      0.16656333	      0.81277978	      0.61375511	     -7.92699263	     -3.57960539	    -14.68671076	      8.98254070	      0.15677491	     31.03140286	      6.17989423	      0.00000000	     -7.61713072	     -2.34388147	      4.23985850	     15.35054867	      0.26791762	     34.41574605	     -8.35854730	      0.00000000	     -0.16646135	      0.41746194	     -0.38842965	     -0.30913538	      0.55522437	     -0.41270650	     -0.27347936	      1.01501695	     -0.41270650	     -0.19024868	      1.01501695	     -0.33987594	     -0.15457601	      0.85128838	     -0.31559909	     -0.09511602	      0.64664854	     -0.29132224	     -1.18901680	      4.72241291	     -2.16032917	      0.00000000	      0.00000000	     -0.40897530	     -5.24765690	      9.13694533	     17.85132549	     -4.26415300	    172.62735548	      0.40724077	      1.16842669	    -14.15367424	    -17.66987384	      0.98071477	    -13.90130685	     47.82657644	     40.10798486	     82.54249333	      3.51196482	      5.88841685
      3.60000000	      1.45221036	      7.07838916	     92.01174031	      0.16763467	      0.81296902	      0.61489434	     -7.88348291	     -3.78279233	    -13.56711889	      9.10775196	      0.15896026	     31.20058870	      4.25043935	      0.00000000	     -7.16254846	     -2.17841928	      4.01788846	     15.83037822	      0.27629222	     35.12953009	     -6.35048741	      0.00000000	     -0.17030610	      0.31904244	     -0.57560136	     -0.31627546	      0.42432644	     -0.61157644	     -0.27979589	      0.77571979	     -0.61157644	     -0.19464284	      0.77571979	     -0.50365119	     -0.15814624	      0.65059134	     -0.46767610	     -0.09731290	      0.49419674	     -0.43170102	     -1.21647943	      3.60907188	     -3.20132208	      0.00000000	      0.00000000	     -0.54045503	     -4.55411005	      8.32615048	     18.89733501	     -2.70066789	    174.50881647	      0.31491855	      1.09238603	    -16.07226667	    -19.26415291	      2.67056538	    -14.84302277	     51.99668348	     40.49554927	     72.86972742	      4.11447140	      5.47201497
      3.61666667	      0.80687177	      6.89732784	     92.94690076	      0.16881219	      0.81310118	      0.61604861	     -7.62490415	     -4.13951759	    -12.62375332	      9.35106769	      0.16320692	     31.39479354	      2.34028044	      0.00000000	     -6.55415231	     -1.83681711	      4.12692335	     16.22529502	      0.28318482	     35.71028893	     -4.66115234	      0.00000000	     -0.14858808	      0.19679222	     -0.77084803	     -0.27594291	      0.26173365	     -0.81902603	     -0.24411535	      0.47848060	     -0.81902603	     -0.16982131	      0.47848060	     -0.67449203	     -0.13797889	      0.40129869	     -0.62631403	     -0.08490323	      0.30483115	     -0.57813602	     -1.06134976	      2.22615293	     -4.28722550	      0.00000000	      0.00000000	     -0.87379085	     -3.71647749	      7.62751802	     19.97720106	     -0.91170413	    175.21521550	      0.26977048	      1.03198836	    -15.83352053	    -21.36267313	      4.60208083	    -16.09014781	     56.83123451	     41.12900543	     65.17256518	      4.83839821	      3.63294065
      3.63333333	     -0.02724870	      6.56792201	     93.84756679	      0.17035076	      0.81322885	      0.61741056	     -7.18389355	     -4.79091705	    -12.60648492	      9.72125893	      0.16966798	     31.82882450	      1.76149937	      0.00000000	     -5.87679508	     -1.22602054	      4.66972228	     16.49769560	      0.28793911	     35.78230802	     -3.83756668	      0.00000000	     -0.11787784	      0.04797993	     -1.01201507	     -0.21891093	      0.06381331	     -1.07526601	     -0.19366150	      0.11665840	     -1.07526601	     -0.13472258	      0.11665840	     -0.88551318	     -0.10946136	      0.09784067	     -0.82226224	     -0.06735540	      0.07432091	     -0.75901130	     -0.84198962	      0.54275856	     -5.62852420	      0.00000000	      0.00000000	     -1.21479077	     -2.82593016	      7.33061967	     21.27217442	      1.27524956	    177.66878563	      0.23711768	      1.00030796	    -14.01109561	    -23.19385233	      5.49839718	    -17.49228578	     58.15054851	     42.51838115	     64.75051873	      6.18101821	      1.60838000
      3.65000000	     -0.53785388	      6.39335831	     95.04145839	      0.17174232	      0.81378977	      0.61911918	     -7.02829659	     -4.96332842	    -12.39413900	      9.85753415	      0.17204643	     31.81463593	      0.42047736	      0.00000000	     -5.27117070	     -1.07140719	      4.96690317	     16.88530657	      0.29470419	     35.88526537	     -2.57780029	      0.00000000	     -0.11296307	     -0.05020617	     -1.36793726	     -0.20978373	     -0.06677421	     -1.45343333	     -0.18558703	     -0.12207129	     -1.45343333	     -0.12910550	     -0.12207129	     -1.19694510	     -0.10489751	     -0.10238043	     -1.11144902	     -0.06454710	     -0.07776936	     -1.02595294	     -0.80688394	     -0.56794229	     -7.60805663	      0.00000000	      0.00000000	     -1.90285198	     -2.33675515	      8.27530060	     22.78916024	      3.70326928	    181.59981859	      0.20327284	      0.89750790	     -8.55398343	    -24.08721934	      6.75237978	    -19.26262736	     61.38433732	     43.89866881	     65.02776465	      6.38894599	     -4.03329907
